# xmcd
#
# Track frame offsets:
#  150
#  17447
#  29725
#  41932
#  54202
#  68185
#  80070
#  88782
#  101600
#  114675
#  133072
#  142505
#  158327
#  169770
#  180375
#  190992
#  203495
#  213785
#  225565
#  237165
#
# Disc length: 3304 seconds
#
# Revision: 2
# Processed by: cddbd v1.5.2PL0 Copyright (c) Steve Scherf et al.
# Submitted via: AltoMP3_Maker 3.0
#
DISCID=020ce614
DTITLE=Various Artist - Cowboy Country 2
DYEAR=1996
DGENRE=Country
TTITLE0=Southern nights
TTITLE1=By The Time I Get To Phoenix (Live)
TTITLE2=I Walk The Line
TTITLE3=Folsom Prison Blues
TTITLE4=Daddy Don't You Walk So Fast
TTITLE5=The Most Beautiful Girl
TTITLE6=You're My Man
TTITLE7=Dallas
TTITLE8=Love On Borrowed Time
TTITLE9=Beginning Of Goodbye
TTITLE10=The Girl Most Likely
TTITLE11=The Cotton Patch
TTITLE12=Walkin' After Midnight
TTITLE13=Stop, Look And Listen
TTITLE14=Willow Tree
TTITLE15=A Wound Time Can't Erase
TTITLE16=San Antonio Rose
TTITLE17=Dixie Cannon Ball
TTITLE18=Little Green Apples
TTITLE19=King Of The Road
EXTD=
EXTT0=
EXTT1=
EXTT2=
EXTT3=
EXTT4=
EXTT5=
EXTT6=
EXTT7=
EXTT8=
EXTT9=
EXTT10=
EXTT11=
EXTT12=
EXTT13=
EXTT14=
EXTT15=
EXTT16=
EXTT17=
EXTT18=
EXTT19=
PLAYORDER=
